<!-- icon666.com - MILLIONS vector ICONS FREE --><svg version="1.1" id="Capa_1" xmlns="http://www.w3.org/2000/svg" xmlns:xlink="http://www.w3.org/1999/xlink" x="0px" y="0px" viewBox="0 0 512 512" style="enable-background:new 0 0 512 512;" xml:space="preserve"><linearGradient id="SVGID_1_" gradientUnits="userSpaceOnUse" x1="-43.1889" y1="642.9109" x2="-26.2179" y2="625.9399" gradientTransform="matrix(21.3333 0 0 -21.3333 996.3334 13790.3564)"><stop offset="0" style="stop-color:#369CDC"></stop><stop offset="1" style="stop-color:#AA56D0"></stop></linearGradient><path style="fill:url(#SVGID_1_);" d="M437.013,74.928c-23.552-23.552-50.944-42.005-81.365-54.869 c-63.211-26.667-136.085-26.667-199.296,0c-30.443,12.885-57.813,31.339-81.387,54.869c-23.531,23.552-41.984,50.923-54.869,81.365 C6.763,187.909,0,221.424,0,255.941s6.763,68.032,20.096,99.648c12.885,30.443,31.339,57.813,54.869,81.365 c23.573,23.552,50.944,42.005,81.387,54.869c31.616,13.355,65.131,20.117,99.648,20.117c9.131,0,18.368-0.491,27.477-1.451 c43.115-4.587,76.715-36.715,83.968-78.805l24.704-15.019c12.928-7.872,17.045-24.789,9.216-37.717l-34.752-57.472 c-7.509-12.48-25.259-16.853-37.696-9.237l-36.971,22.464c-2.411,1.493-5.952,1.088-7.765-1.003 c-34.24-38.784-60.971-83.008-79.445-131.413c-1.003-2.688,0.149-5.867,2.731-7.424l36.971-22.485 c12.864-7.872,17.024-24.789,9.216-37.739l-34.752-57.472c-7.637-12.608-25.152-16.917-37.696-9.216l-28.693,17.429 c-5.355,3.264-10.411,7.061-14.976,11.264c-25.131,23.061-36.245,59.456-28.309,92.736c8.768,36.8,25.195,77.739,46.208,115.264 c17.749,31.659,39.275,61.12,64,87.531l3.456,3.691c18.56,19.925,39.595,42.475,68.971,49.472 c7.168,1.707,14.571,2.581,21.973,2.581c9.643,0,19.115-1.579,28.181-4.373c-10.112,24.789-32.853,42.709-60.821,45.696 c-39.019,4.117-79.829-1.579-116.587-17.109c-27.904-11.797-52.971-28.715-74.581-50.283 c-21.589-21.611-38.507-46.677-50.283-74.581c-12.203-28.928-18.411-59.691-18.411-91.328s6.208-62.4,18.432-91.349 C51.563,136.688,68.48,111.6,90.069,90.011s46.677-38.507,74.581-50.304c57.92-24.448,124.8-24.448,182.699,0 c27.904,11.797,52.971,28.715,74.581,50.283c21.589,21.611,38.507,46.677,50.283,74.581c12.245,28.971,18.453,59.733,18.453,91.371 s-6.208,62.4-18.432,91.349c-11.797,27.904-28.715,52.971-50.283,74.581c-4.16,4.16-4.16,10.923,0,15.083 c4.16,4.16,10.923,4.16,15.083,0c23.552-23.552,42.005-50.944,54.869-81.365C505.237,323.973,512,290.459,512,255.941 s-6.763-68.032-20.096-99.648C479.019,125.851,460.565,98.48,437.013,74.928z M296.832,424.603 c-23.125-5.525-41.024-24.704-58.325-43.264l-3.477-3.733c-23.552-25.152-44.053-53.205-60.949-83.371 c-20.096-35.883-35.755-74.88-44.075-109.803c-6.187-25.856,2.432-54.144,21.952-72.085c3.563-3.264,7.488-6.208,11.669-8.768 l28.672-17.408c0.981-0.597,2.005-0.896,3.136-0.896c2.155,0,4.075,1.109,5.205,2.944l34.752,57.472 c1.749,2.901,0.811,6.72-2.069,8.491l-36.949,22.443c-11.435,6.955-16.299,20.949-11.541,33.28 c19.349,50.795,47.403,97.216,83.371,137.941c5.141,5.781,12.587,9.131,20.437,9.131c5.077,0,10.069-1.387,14.4-4.032l36.949-22.464 c2.859-1.749,6.677-0.789,8.363,2.048L383.104,390c1.749,2.901,0.832,6.699-2.048,8.469l-28.672,17.429 C336,425.861,315.541,429.104,296.832,424.603z"></path></svg>